<svg width="40" height="40" viewBox="0 0 40 40" fill="none" xmlns="http://www.w3.org/2000/svg">
  <path d="M36.25,10 C36.25,8.343 35.591,6.753 34.419,5.581 C33.247,4.408 31.657,3.75 30,3.75 C24.451,3.75 15.549,3.75 10,3.75 C8.343,3.75 6.752,4.408 5.581,5.581 C4.409,6.753 3.75,8.343 3.75,10 C3.75,14.363 3.75,20 3.75,20 C3.75,20.69 4.309,21.25 5,21.25 L35,21.25 C35.691,21.25 36.25,20.69 36.25,20 L36.25,10 Z M33.75,18.75 L33.75,10 C33.75,9.005 33.355,8.052 32.652,7.348 C31.948,6.645 30.994,6.25 30,6.25 C24.451,6.25 15.549,6.25 10,6.25 C9.006,6.25 8.052,6.645 7.348,7.348 C6.645,8.052 6.25,9.005 6.25,10 L6.25,18.75 L33.75,18.75 Z" fill-rule="evenodd" fill="#ffffff"/>
  <path d="M6.25,21.25 L6.25,30 C6.25,30.995 6.645,31.948 7.348,32.652 C8.052,33.355 9.006,33.75 10,33.75 C15.549,33.75 24.451,33.75 30,33.75 C30.994,33.75 31.948,33.355 32.652,32.652 C33.355,31.948 33.75,30.995 33.75,30 C33.75,29.31 34.31,28.75 35,28.75 C35.69,28.75 36.25,29.31 36.25,30 C36.25,31.657 35.591,33.247 34.419,34.419 C33.247,35.592 31.657,36.25 30,36.25 C24.451,36.25 15.549,36.25 10,36.25 C8.343,36.25 6.752,35.592 5.581,34.419 C4.409,33.247 3.75,31.657 3.75,30 L3.75,20 C3.75,19.31 4.309,18.75 5,18.75 L35,18.75 C35.691,18.75 36.25,19.31 36.25,20 C36.25,20 36.25,22.246 36.25,25 C36.25,25.69 35.69,26.25 35,26.25 C34.31,26.25 33.75,25.69 33.75,25 L33.75,21.25 L6.25,21.25 Z" fill-rule="evenodd" fill="#ffffff"/>
  <path d="M10,10 L15,10 L15,15 L10,15 L10,10 Z" fill-rule="nonzero" fill="#db2a6b"/>
  <path d="M16.25,10 C16.25,9.309 15.691,8.75 15,8.75 L10,8.75 C9.309,8.75 8.75,9.309 8.75,10 L8.75,15 C8.75,15.691 9.309,16.25 10,16.25 L15,16.25 C15.691,16.25 16.25,15.691 16.25,15 L16.25,10 Z M11.25,11.25 L11.25,13.75 L13.75,13.75 L13.75,11.25 L11.25,11.25 Z" fill-rule="evenodd" fill="#ffffff"/>
  <path d="M20,11.25 L30,11.25 C30.69,11.25 31.25,10.69 31.25,10 C31.25,9.31 30.69,8.75 30,8.75 L20,8.75 C19.31,8.75 18.75,9.31 18.75,10 C18.75,10.69 19.31,11.25 20,11.25 Z" fill-rule="evenodd" fill="#ffffff"/>
  <path d="M20,16.25 L30,16.25 C30.69,16.25 31.25,15.69 31.25,15 C31.25,14.31 30.69,13.75 30,13.75 L20,13.75 C19.31,13.75 18.75,14.31 18.75,15 C18.75,15.69 19.31,16.25 20,16.25 Z" fill-rule="evenodd" fill="#ffffff"/>
  <path d="M33.536,33.536 C32.598,34.473 31.326,35 30,35 L20,35 L16.25,31.25 L23.75,23.75 L33.536,33.536 Z M20,35 L10,35 C8.674,35 7.402,34.473 6.464,33.536 L12.5,27.5 L20,35 Z" fill-rule="evenodd" fill="#db2a6b"/>
  <path d="M16.25,29.483 L22.866,22.866 C23.354,22.378 24.146,22.378 24.634,22.866 L34.419,32.652 C34.906,33.139 34.907,33.928 34.422,34.417 C34.422,34.417 34.422,34.417 34.419,34.419 C33.247,35.591 31.657,36.25 30,36.25 L20,36.25 L10,36.25 C8.343,36.25 6.753,35.591 5.581,34.419 L5.578,34.417 C5.093,33.928 5.094,33.139 5.581,32.652 L11.616,26.616 C12.104,26.128 12.896,26.128 13.384,26.616 L16.25,29.483 Z M31.616,33.384 L23.75,25.518 L18.017,31.25 L20.517,33.75 L30,33.75 C30.565,33.75 31.117,33.623 31.616,33.384 Z M16.982,33.75 L12.5,29.268 L8.384,33.384 C8.884,33.623 9.436,33.75 10,33.75 L16.982,33.75 Z" fill-rule="evenodd" fill="#ffffff"/>
</svg>
